<svg width="499.99999999999994" height="499.99999999999994" xmlns="http://www.w3.org/2000/svg">

 <title/>
 <g>
  <title>background</title>
  <rect fill="none" id="canvas_background" height="402" width="582" y="-1" x="-1"/>
 </g>
 <g>
  <title>Layer 1</title>
  <path stroke-width="0" stroke="null" fill="#ffa41c" id="svg_1" d="m385.007926,131.098738c1.427048,24.06698 -43.544263,94.943722 -43.544263,94.943722c-27.203915,-116.10518 -172.068622,-201.200981 -172.068622,-201.200981s34.287733,40.625885 -38.697441,159.41803s-40.22734,193.037235 -40.22734,193.037235l0,0c15.81324,57.647617 79.773296,100.819048 156.383945,100.819048s133.705444,-46.436929 156.383945,-100.819048l0.064281,0c47.144025,-104.933061 -18.294505,-246.198006 -18.294505,-246.198006z" class="cls-1"/>
  <path stroke-width="0" stroke-dasharray="5,2,2,2" stroke="null" fill="#ba0d0d" id="svg_2" d="m166.499005,394.494825c0,-46.204967 81.511934,-141.705853 81.511934,-141.705853s81.496002,95.596483 81.496002,141.705853s-36.485991,83.615057 -81.496002,83.615057s-81.511934,-37.426023 -81.511934,-83.615057z" class="cls-2"/>
 </g>
</svg>