<svg width="128" height="128" xmlns="http://www.w3.org/2000/svg" xmlns:xlink="http://www.w3.org/1999/xlink">
 <g>
  <title>background</title>
  <rect fill="none" id="canvas_background" height="402" width="582" y="-1" x="-1"/>
 </g>
 <g>
  <title>Layer 1</title>
  <rect id="svg_1" y="-871.471421" x="-109.755365" width="727.938" opacity="0" height="1520" fill="#F4F5F5"/>
  <defs>
   <circle r="64" id="SVGID_91_" cy="64" cx="64"/>
  </defs>
  <clipPath id="SVGID_2_">
   <use id="svg_5" xlink:href="#SVGID_91_"/>
  </clipPath>
  <circle id="svg_9" r="16.631" fill="#303640" cy="63.244" cx="88.087"/>
  <circle id="svg_11" stroke-miterlimit="10" stroke="#41506B" r="14.006" fill="none" cy="63.244" cx="88.087"/>
  <circle id="svg_12" stroke-miterlimit="10" stroke="#41506B" r="11.131" fill="none" cy="63.244" cx="88.087"/>
  <circle id="svg_13" stroke-miterlimit="10" stroke="#6B6B6B" r="8.069" fill="none" cy="63.244" cx="88.087"/>
  <circle id="svg_14" stroke-miterlimit="10" stroke="#6B6B6B" r="5.057" fill="none" cy="63.244" cx="88.087"/>
  <circle id="svg_15" stroke-miterlimit="10" stroke="#6B6B6B" r="2.088" fill="none" cy="63.244" cx="88.087"/>
  <circle id="svg_17" r="16.631" fill="#303640" cy="63.244" cx="40.169"/>
  <circle id="svg_19" stroke-miterlimit="10" stroke="#41506B" r="14.006" fill="none" cy="63.244" cx="40.169"/>
  <circle id="svg_20" stroke-miterlimit="10" stroke="#41506B" r="11.131" fill="none" cy="63.244" cx="40.169"/>
  <circle id="svg_21" stroke-miterlimit="10" stroke="#6B6B6B" r="8.069" fill="none" cy="63.244" cx="40.169"/>
  <circle id="svg_22" stroke-miterlimit="10" stroke="#6B6B6B" r="5.057" fill="none" cy="63.244" cx="40.169"/>
  <circle id="svg_23" stroke-miterlimit="10" stroke="#6B6B6B" r="2.088" fill="none" cy="63.244" cx="40.169"/>
  <path id="svg_24" fill="#600091" d="m106.242787,34.455l-84,0c-2.209,0 -4,1.791 -4,4l0,51.09c0,2.209 1.791,4 4,4l84,0c2.209,0 4,-1.791 4,-4l0,-51.09c0,-2.209 -1.791,-4 -4,-4zm-26.913,37.581l-30.196,0l0,-18.072l30.197,0l0,18.072l-0.001,0z"/>
  <path id="svg_25" fill="#e1a5ff" d="m89.893,81.334l-51.786,0c-1.353,0 -2.539,0.906 -2.894,2.211l-2.524,9.263c-0.347,1.272 0.611,2.526 1.93,2.526l58.764,0c1.319,0 2.276,-1.254 1.93,-2.526l-2.524,-9.263c-0.357,-1.305 -1.543,-2.211 -2.896,-2.211z"/>
  <circle id="svg_27" r="2" fill="#ffffff" cy="90.334" cx="88.087"/>
  <circle id="svg_28" r="2" fill="#ffffff" cy="86.334" cx="79.087"/>
  <circle id="svg_30" r="2" fill="#ffffff" cy="90.334" cx="39.333"/>
  <circle id="svg_31" r="2" fill="#ffffff" cy="86.334" cx="48.333"/>
  <path id="svg_32" fill="#fcfcfc" d="m102.391,40.98l-76.782,0c-0.552,0 -1,0.448 -1,1l0,34.989c0,0.552 0.448,1 1,1l76.781,0c0.552,0 1,-0.448 1,-1l0,-34.989c0.001,-0.552 -0.447,-1 -0.999,-1zm-23.304,31.056l-30.196,0l0,-18.072l30.197,0l0,18.072l-0.001,0z"/>
  <path id="svg_33" fill="#e1a5ff" d="m30.819,63c0,4.99 4.046,9.036 9.036,9.036l9.036,0l0,-18.072l-9.036,0c-4.991,0 -9.036,4.046 -9.036,9.036zm57.326,-9.036l-9.058,0l0,18.072l9.058,0c4.99,0 9.036,-4.045 9.036,-9.036s-4.045,-9.036 -9.036,-9.036z"/>
  <line id="svg_35" y2="49" y1="49" x2="88" x1="39" stroke-miterlimit="10" stroke-linejoin="round" stroke-linecap="round" stroke="#e1a5ff" fill="none"/>
  <line id="svg_36" y2="45" y1="45" x2="88" x1="39" stroke-miterlimit="10" stroke-linejoin="round" stroke-linecap="round" stroke="#e1a5ff" fill="none"/>
  <defs>
   <path id="SVGID_93_" d="m30.819,63c0,4.99 4.046,9.036 9.036,9.036l9.036,0l0,-18.072l-9.036,0c-4.991,0 -9.036,4.046 -9.036,9.036z"/>
  </defs>
  <clipPath id="SVGID_4_">
   <use id="svg_38" xlink:href="#SVGID_93_"/>
  </clipPath>
  <polygon id="svg_39" points="34.859,64 36.929,66.071 36.168,67.245 41.472,72.549 49.313,72.549      49.313,64.396 44.17,59.243 42.708,59.729 40.968,57.988    " fill="#8800cc" clip-path="url(#SVGID_4_)"/>
  <path id="svg_40" fill="#FFF1E5" d="m44.827,62.244l-0.409,0c-0.109,-0.466 -0.294,-0.901 -0.539,-1.296l0.29,-0.29c0.391,-0.391 0.391,-1.023 0,-1.414s-1.023,-0.391 -1.414,0l-0.288,0.288c-0.396,-0.246 -0.832,-0.432 -1.299,-0.542l0,-0.403c0,-0.552 -0.447,-1 -1,-1s-1,0.448 -1,1l0,0.403c-0.467,0.11 -0.903,0.296 -1.299,0.542l-0.287,-0.287c-0.391,-0.391 -1.023,-0.391 -1.414,0s-0.391,1.023 0,1.414l0.29,0.29c-0.245,0.396 -0.43,0.83 -0.539,1.297l-0.408,0c-0.553,0 -1,0.448 -1,1s0.447,1 1,1l0.413,0c0.11,0.464 0.295,0.897 0.54,1.291l-0.296,0.296c-0.391,0.391 -0.391,1.023 0,1.414c0.195,0.195 0.451,0.293 0.707,0.293s0.512,-0.098 0.707,-0.293l0.298,-0.298c0.394,0.243 0.825,0.427 1.289,0.536l0,0.419c0,0.552 0.447,1 1,1s1,-0.448 1,-1l0,-0.419c0.463,-0.109 0.895,-0.293 1.289,-0.536l0.298,0.298c0.195,0.195 0.451,0.293 0.707,0.293s0.512,-0.098 0.707,-0.293c0.391,-0.391 0.391,-1.023 0,-1.414l-0.296,-0.296c0.245,-0.394 0.43,-0.827 0.539,-1.291l0.414,0c0.553,0 1,-0.448 1,-1s-0.447,-1.002 -1,-1.002z"/>
  <circle id="svg_43" r="1" fill="#ffffff" cy="38.667" cx="105.969"/>
  <circle id="svg_45" r="1" fill="#ffffff" cy="38.667" cx="22.029"/>
  <circle id="svg_48" r="1" fill="#ffffff" cy="89.334" cx="105.969"/>
  <circle id="svg_50" r="1" fill="#ffffff" cy="89.334" cx="22.029"/>
  <defs>
   <path id="SVGID_95_" d="m88.145,53.964l-9.058,0l0,18.072l9.058,0c4.99,0 9.036,-4.045 9.036,-9.036s-4.045,-9.036 -9.036,-9.036z"/>
  </defs>
  <clipPath id="SVGID_6_">
   <use id="svg_52" xlink:href="#SVGID_95_"/>
  </clipPath>
  <polygon id="svg_53" points="82.776,64 84.847,66.071 84.085,67.245 89.389,72.549 97.23,72.549      97.23,64.396 92.087,59.243 90.626,59.729 88.885,57.988    " fill="#8800cc" clip-path="url(#SVGID_6_)"/>
  <path id="svg_54" fill="#FFF1E5" d="m92.746,62.244l-0.409,0c-0.109,-0.466 -0.294,-0.901 -0.539,-1.296l0.29,-0.29c0.391,-0.391 0.391,-1.023 0,-1.414s-1.023,-0.391 -1.414,0l-0.288,0.288c-0.396,-0.246 -0.832,-0.432 -1.299,-0.542l0,-0.403c0,-0.552 -0.447,-1 -1,-1s-1,0.448 -1,1l0,0.403c-0.467,0.11 -0.903,0.296 -1.299,0.542l-0.288,-0.289c-0.391,-0.391 -1.023,-0.391 -1.414,0s-0.391,1.023 0,1.414l0.29,0.29c-0.245,0.396 -0.43,0.83 -0.539,1.297l-0.408,0c-0.553,0 -1,0.448 -1,1s0.447,1 1,1l0.413,0c0.11,0.464 0.295,0.897 0.54,1.291l-0.296,0.296c-0.391,0.391 -0.391,1.023 0,1.414c0.195,0.195 0.451,0.293 0.707,0.293s0.512,-0.098 0.707,-0.293l0.298,-0.298c0.394,0.243 0.825,0.427 1.289,0.536l0,0.419c0,0.552 0.447,1 1,1s1,-0.448 1,-1l0,-0.419c0.463,-0.109 0.895,-0.293 1.289,-0.536l0.298,0.298c0.195,0.195 0.451,0.293 0.707,0.293s0.512,-0.098 0.707,-0.293c0.391,-0.391 0.391,-1.023 0,-1.414l-0.296,-0.296c0.245,-0.394 0.43,-0.827 0.539,-1.291l0.414,0c0.553,0 1,-0.448 1,-1s-0.447,-1 -0.999,-1z"/>
 </g>
</svg>