<svg width="128" height="128" xmlns="http://www.w3.org/2000/svg" xmlns:xlink="http://www.w3.org/1999/xlink">
 <g>
  <title>background</title>
  <rect x="-1" y="-1" width="30.131149" height="30.131149" id="canvas_background" fill="none"/>
 </g>
 <g>
  <title>Layer 1</title>
  <rect fill="#F4F5F5" height="1520" opacity="0" width="727.938" x="-59.984" y="-921" id="svg_1"/>
  <circle cx="64" cy="64" fill="#9a48e2" r="64" id="svg_3"/>
  <defs>
   <circle cx="64" cy="64" id="SVGID_91_" r="64"/>
  </defs>
  <clipPath id="SVGID_2_">
   <use xlink:href="#SVGID_91_" id="svg_5"/>
  </clipPath>
  <polygon clip-path="url(#SVGID_2_)" fill="#7d11db" points="19.136,92.334 54.802,128 128,128 128,55.05 108.929,35.737      30.819,47.833    " id="svg_6"/>
  <circle cx="88.087" cy="63.244" fill="#303640" r="16.631" id="svg_9"/>
  <circle cx="88.087" cy="63.244" fill="none" r="14.006" stroke="#41506B" stroke-miterlimit="10" id="svg_11"/>
  <circle cx="88.087" cy="63.244" fill="none" r="11.131" stroke="#41506B" stroke-miterlimit="10" id="svg_12"/>
  <circle cx="88.087" cy="63.244" fill="none" r="8.069" stroke="#6B6B6B" stroke-miterlimit="10" id="svg_13"/>
  <circle cx="88.087" cy="63.244" fill="none" r="5.057" stroke="#6B6B6B" stroke-miterlimit="10" id="svg_14"/>
  <circle cx="88.087" cy="63.244" fill="none" r="2.088" stroke="#6B6B6B" stroke-miterlimit="10" id="svg_15"/>
  <circle cx="40.169" cy="63.244" fill="#303640" r="16.631" id="svg_17"/>
  <circle cx="40.169" cy="63.244" fill="none" r="14.006" stroke="#41506B" stroke-miterlimit="10" id="svg_19"/>
  <circle cx="40.169" cy="63.244" fill="none" r="11.131" stroke="#41506B" stroke-miterlimit="10" id="svg_20"/>
  <circle cx="40.169" cy="63.244" fill="none" r="8.069" stroke="#6B6B6B" stroke-miterlimit="10" id="svg_21"/>
  <circle cx="40.169" cy="63.244" fill="none" r="5.057" stroke="#6B6B6B" stroke-miterlimit="10" id="svg_22"/>
  <circle cx="40.169" cy="63.244" fill="none" r="2.088" stroke="#6B6B6B" stroke-miterlimit="10" id="svg_23"/>
  <path d="m106,34.455l-84,0c-2.209,0 -4,1.791 -4,4l0,51.09c0,2.209 1.791,4 4,4l84,0c2.209,0 4,-1.791 4,-4l0,-51.09c0,-2.209 -1.791,-4 -4,-4zm-26.913,37.581l-30.196,0l0,-18.072l30.197,0l0,18.072l-0.001,0z" fill="#333333" id="svg_24"/>
  <path d="m89.893,81.334l-51.786,0c-1.353,0 -2.539,0.906 -2.894,2.211l-2.524,9.263c-0.347,1.272 0.611,2.526 1.93,2.526l58.764,0c1.319,0 2.276,-1.254 1.93,-2.526l-2.524,-9.263c-0.357,-1.305 -1.543,-2.211 -2.896,-2.211z" fill="#f7f7f7" id="svg_25"/>
  <circle cx="88.087" cy="90.334" fill="#5881ac" r="2" id="svg_27"/>
  <circle cx="79.087" cy="86.334" fill="#5881ac" r="2" id="svg_28"/>
  <circle cx="39.333" cy="90.334" fill="#5881ac" r="2" id="svg_30"/>
  <circle cx="48.333" cy="86.334" fill="#5881ac" r="2" id="svg_31"/>
  <path d="m102.391,40.98l-76.782,0c-0.552,0 -1,0.448 -1,1l0,34.989c0,0.552 0.448,1 1,1l76.781,0c0.552,0 1,-0.448 1,-1l0,-34.989c0.001,-0.552 -0.447,-1 -0.999,-1zm-23.304,31.056l-30.196,0l0,-18.072l30.197,0l0,18.072l-0.001,0z" fill="#f7f7f7" id="svg_32"/>
  <path d="m30.819,63c0,4.99 4.046,9.036 9.036,9.036l9.036,0l0,-18.072l-9.036,0c-4.991,0 -9.036,4.046 -9.036,9.036zm57.326,-9.036l-9.058,0l0,18.072l9.058,0c4.99,0 9.036,-4.045 9.036,-9.036s-4.045,-9.036 -9.036,-9.036z" fill="#7c9bbe" id="svg_33"/>
  <path d="m103.391,75.043l0,1.926c0,0.552 -0.448,1 -1,1l-76.782,0c-0.552,0 -1,-0.448 -1,-1l0,-1.926l78.782,0z" fill="#D4B898" id="svg_34"/>
  <line fill="none" stroke="#65A1B3" stroke-linecap="round" stroke-linejoin="round" stroke-miterlimit="10" x1="39" x2="88" y1="49" y2="49" id="svg_35"/>
  <line fill="none" stroke="#65a1b3" stroke-linecap="round" stroke-linejoin="round" stroke-miterlimit="10" x1="39" x2="88" y1="45" y2="45" id="svg_36"/>
  <defs>
   <path d="m30.819,63c0,4.99 4.046,9.036 9.036,9.036l9.036,0l0,-18.072l-9.036,0c-4.991,0 -9.036,4.046 -9.036,9.036z" id="SVGID_93_"/>
  </defs>
  <clipPath id="SVGID_4_">
   <use xlink:href="#SVGID_93_" id="svg_38"/>
  </clipPath>
  <polygon clip-path="url(#SVGID_4_)" fill="#5881ac" points="34.859,64 36.929,66.071 36.168,67.245 41.472,72.549 49.313,72.549      49.313,64.396 44.17,59.243 42.708,59.729 40.968,57.988    " id="svg_39"/>
  <path d="m44.827,62.244l-0.409,0c-0.109,-0.466 -0.294,-0.901 -0.539,-1.296l0.29,-0.29c0.391,-0.391 0.391,-1.023 0,-1.414s-1.023,-0.391 -1.414,0l-0.288,0.288c-0.396,-0.246 -0.832,-0.432 -1.299,-0.542l0,-0.403c0,-0.552 -0.447,-1 -1,-1s-1,0.448 -1,1l0,0.403c-0.467,0.11 -0.903,0.296 -1.299,0.542l-0.287,-0.287c-0.391,-0.391 -1.023,-0.391 -1.414,0s-0.391,1.023 0,1.414l0.29,0.29c-0.245,0.396 -0.43,0.83 -0.539,1.297l-0.408,0c-0.553,0 -1,0.448 -1,1s0.447,1 1,1l0.413,0c0.11,0.464 0.295,0.897 0.54,1.291l-0.296,0.296c-0.391,0.391 -0.391,1.023 0,1.414c0.195,0.195 0.451,0.293 0.707,0.293s0.512,-0.098 0.707,-0.293l0.298,-0.298c0.394,0.243 0.825,0.427 1.289,0.536l0,0.419c0,0.552 0.447,1 1,1s1,-0.448 1,-1l0,-0.419c0.463,-0.109 0.895,-0.293 1.289,-0.536l0.298,0.298c0.195,0.195 0.451,0.293 0.707,0.293s0.512,-0.098 0.707,-0.293c0.391,-0.391 0.391,-1.023 0,-1.414l-0.296,-0.296c0.245,-0.394 0.43,-0.827 0.539,-1.291l0.414,0c0.553,0 1,-0.448 1,-1s-0.447,-1.002 -1,-1.002z" fill="#FFF1E5" id="svg_40"/>
  <circle cx="105.969" cy="38.667" fill="#6D8BBE" r="1" id="svg_43"/>
  <circle cx="22.029" cy="38.667" fill="#6D8BBE" r="1" id="svg_45"/>
  <circle cx="105.969" cy="89.334" fill="#5D77A2" r="1" id="svg_48"/>
  <circle cx="22.029" cy="89.334" fill="#5D77A2" r="1" id="svg_50"/>
  <defs>
   <path d="m88.145,53.964l-9.058,0l0,18.072l9.058,0c4.99,0 9.036,-4.045 9.036,-9.036s-4.045,-9.036 -9.036,-9.036z" id="SVGID_95_"/>
  </defs>
  <clipPath id="SVGID_6_">
   <use xlink:href="#SVGID_95_" id="svg_52"/>
  </clipPath>
  <polygon clip-path="url(#SVGID_6_)" fill="#5881AC" points="82.776,64 84.847,66.071 84.085,67.245 89.389,72.549 97.23,72.549      97.23,64.396 92.087,59.243 90.626,59.729 88.885,57.988    " id="svg_53"/>
  <path d="m92.746,62.244l-0.409,0c-0.109,-0.466 -0.294,-0.901 -0.539,-1.296l0.29,-0.29c0.391,-0.391 0.391,-1.023 0,-1.414s-1.023,-0.391 -1.414,0l-0.288,0.288c-0.396,-0.246 -0.832,-0.432 -1.299,-0.542l0,-0.403c0,-0.552 -0.447,-1 -1,-1s-1,0.448 -1,1l0,0.403c-0.467,0.11 -0.903,0.296 -1.299,0.542l-0.288,-0.289c-0.391,-0.391 -1.023,-0.391 -1.414,0s-0.391,1.023 0,1.414l0.29,0.29c-0.245,0.396 -0.43,0.83 -0.539,1.297l-0.408,0c-0.553,0 -1,0.448 -1,1s0.447,1 1,1l0.413,0c0.11,0.464 0.295,0.897 0.54,1.291l-0.296,0.296c-0.391,0.391 -0.391,1.023 0,1.414c0.195,0.195 0.451,0.293 0.707,0.293s0.512,-0.098 0.707,-0.293l0.298,-0.298c0.394,0.243 0.825,0.427 1.289,0.536l0,0.419c0,0.552 0.447,1 1,1s1,-0.448 1,-1l0,-0.419c0.463,-0.109 0.895,-0.293 1.289,-0.536l0.298,0.298c0.195,0.195 0.451,0.293 0.707,0.293s0.512,-0.098 0.707,-0.293c0.391,-0.391 0.391,-1.023 0,-1.414l-0.296,-0.296c0.245,-0.394 0.43,-0.827 0.539,-1.291l0.414,0c0.553,0 1,-0.448 1,-1s-0.447,-1 -0.999,-1z" fill="#FFF1E5" id="svg_54"/>
 </g>
</svg>